<svg width="1887" height="1261" xmlns="http://www.w3.org/2000/svg" xmlns:xlink="http://www.w3.org/1999/xlink" xml:space="preserve" overflow="hidden"><defs><clipPath id="clip0"><rect x="220" y="343" width="1887" height="1261"/></clipPath><clipPath id="clip1"><rect x="367" y="483" width="1716" height="877"/></clipPath><clipPath id="clip2"><rect x="-1990" y="367" width="6307" height="80"/></clipPath><clipPath id="clip3"><rect x="-1990" y="367" width="6307" height="80"/></clipPath><clipPath id="clip4"><rect x="-1990" y="367" width="6307" height="80"/></clipPath></defs><g clip-path="url(#clip0)" transform="translate(-220 -343)"><rect x="220.5" y="343.5" width="1886" height="1259" fill="#FFFFFF"/><rect x="220.5" y="343.5" width="1886" height="1259" stroke="#D9D9D9" stroke-width="3.4375" stroke-miterlimit="2" fill="none"/><g clip-path="url(#clip1)"><path d="M372.5 1246.5 2076.5 1246.5" stroke="#D9D9D9" stroke-width="3.4375" stroke-miterlimit="2" fill="none"/><path d="M372.5 1138.5 2076.5 1138.5" stroke="#D9D9D9" stroke-width="3.4375" stroke-miterlimit="2" fill="none"/><path d="M372.5 1030.5 2076.5 1030.5" stroke="#D9D9D9" stroke-width="3.4375" stroke-miterlimit="2" fill="none"/><path d="M372.5 921.5 2076.5 921.5" stroke="#D9D9D9" stroke-width="3.4375" stroke-miterlimit="2" fill="none"/><path d="M372.5 813.5 2076.5 813.5" stroke="#D9D9D9" stroke-width="3.4375" stroke-miterlimit="2" fill="none"/><path d="M372.5 705.5 2076.5 705.5" stroke="#D9D9D9" stroke-width="3.4375" stroke-miterlimit="2" fill="none"/><path d="M372.5 597.5 2076.5 597.5" stroke="#D9D9D9" stroke-width="3.4375" stroke-miterlimit="2" fill="none"/><path d="M372.5 488.5 2076.5 488.5" stroke="#D9D9D9" stroke-width="3.4375" stroke-miterlimit="2" fill="none"/><rect x="371" y="576" width="213" height="778" fill="#4472C4"/><rect x="585" y="922" width="212" height="432" fill="#4472C4"/><rect x="798" y="619" width="212" height="735" fill="#4472C4"/><rect x="1011" y="1182" width="212" height="172" fill="#4472C4"/><rect x="1224" y="533" width="212" height="821" fill="#4472C4"/><rect x="1437" y="879" width="212" height="475" fill="#4472C4"/><rect x="1650" y="792" width="212" height="562" fill="#4472C4"/><rect x="1863" y="1009" width="212" height="345" fill="#4472C4"/></g><path d="M372.5 1354.5 2076.5 1354.5" stroke="#D9D9D9" stroke-width="3.4375" stroke-miterlimit="2" fill="none"/><text fill="#595959" font-family="Calibri,Calibri_MSFontService,sans-serif" font-weight="400" font-size="12" transform="matrix(2.97696 -1.71875 1.71875 2.97696 244.299 1512.73)" x="-1.54726" y="3.0038">[20064, 37268]<tspan font-size="12" x="52.1694" y="33.9932">(37268, 54473]</tspan><tspan font-size="12" x="105.84" y="64.9797">(54473, 71677]</tspan><tspan font-size="12" x="159.51" y="95.9662">(71677, 88882]</tspan><tspan font-size="12" x="207.027" y="126.947">(88882, 106086]</tspan><tspan font-size="12" x="254.544" y="157.927">(106086, 123291]</tspan><tspan font-size="12" x="308.214" y="188.914">(123291, 140495]</tspan><tspan font-size="12" x="361.884" y="219.9">(140495, 157699]</tspan></text><path d="M372.5 1354.5 372.5 488.5" stroke="#D9D9D9" stroke-width="3.4375" stroke-miterlimit="2" fill="none"/><text fill="#595959" font-family="Calibri,Calibri_MSFontService,sans-serif" font-weight="400" font-size="12" transform="matrix(3.4375 0 0 3.4375 321.839 1329.34)" x="0.133523" y="3.35675">0<tspan font-size="12" x="0.133523" y="-28.1123">5</tspan><tspan font-size="12" x="-6.02126" y="-59.5813">10</tspan><tspan font-size="12" x="-6.02126" y="-91.135">15</tspan><tspan font-size="12" x="-6.02126" y="-122.604">20</tspan><tspan font-size="12" x="-6.02126" y="-154.073">25</tspan><tspan font-size="12" x="-6.02126" y="-185.542">30</tspan><tspan font-size="12" x="-6.02126" y="-217.096">35</tspan><tspan font-size="12" x="-6.02126" y="-248.565">40</tspan></text><g clip-path="url(#clip2)"><text fill="#595959" font-family="Calibri,Calibri_MSFontService,sans-serif" font-weight="400" font-size="64" transform="translate(713.027 429)">2</text></g><g clip-path="url(#clip3)"><text fill="#595959" font-family="Calibri,Calibri_MSFontService,sans-serif" font-weight="400" font-size="64" transform="translate(745.545 429)">-</text></g><g clip-path="url(#clip4)"><text fill="#595959" font-family="Calibri,Calibri_MSFontService,sans-serif" font-weight="400" font-size="64" transform="translate(765.185 429)">prices scheme profit distribution</text></g><path d="M220 344 2106.82 344 2106.82 1603.57 220 1603.57Z" fill="#000000" fill-rule="evenodd" fill-opacity="0"/></g></svg>